JosefinSans-BoldItalic.ufo
<glyph name="exclam" format="2">
  <advance width="202"/>
  <unicode hex="0021"/>
  <outline>
    <contour>
      <point x="112" y="765" type="line"/>
      <point x="42" y="199" type="line"/>
      <point x="167" y="199" type="line"/>
      <point x="237" y="765" type="line"/>
    </contour>
    <contour>
      <point x="74" y="-14" type="curve"/>
      <point x="122" y="-17"/>
      <point x="157" y="9"/>
      <point x="162" y="52" type="curve"/>
      <point x="167" y="93"/>
      <point x="139" y="127"/>
      <point x="92" y="130" type="curve"/>
      <point x="45" y="133"/>
      <point x="6" y="103"/>
      <point x="1" y="62" type="curve"/>
      <point x="-4" y="19"/>
      <point x="26" y="-11"/>
    </contour>
  </outline>
</glyph>
<glyph name="quotedbl" format="2">
  <advance width="366"/>
  <unicode hex="0022"/>
  <outline>
    <contour>
      <point x="276" y="734" type="curve"/>
      <point x="154" y="734" type="line"/>
      <point x="123" y="481" type="line"/>
      <point x="241" y="481" type="line"/>
      <point x="252" y="566"/>
      <point x="265" y="650"/>
    </contour>
    <contour>
      <point x="412" y="734" type="curve"/>
      <point x="290" y="734" type="line"/>
      <point x="259" y="481" type="line"/>
      <point x="377" y="481" type="line"/>
      <point x="388" y="566"/>
      <point x="401" y="650"/>
    </contour>
  </outline>
</glyph>
<glyph name="ampersand" format="2">
  <advance width="720"/>
  <unicode hex="0026"/>
  <outline>
    <contour>
      <point x="668" y="0" type="curve"/>
      <point x="359" y="498" type="line" smooth="yes"/>
      <point x="354" y="507"/>
      <point x="331" y="549"/>
      <point x="335" y="577" type="curve" smooth="yes"/>
      <point x="339" y="609"/>
      <point x="362" y="641"/>
      <point x="407" y="641" type="curve" smooth="yes"/>
      <point x="443" y="641"/>
      <point x="476" y="612"/>
      <point x="513" y="567" type="curve"/>
      <point x="598" y="664" type="line"/>
      <point x="561" y="718"/>
      <point x="493" y="763"/>
      <point x="399" y="763" type="curve" smooth="yes"/>
      <point x="269" y="763"/>
      <point x="196" y="670"/>
      <point x="187" y="591" type="curve" smooth="yes"/>
      <point x="179" y="529"/>
      <point x="212" y="464"/>
      <point x="230" y="436" type="curve"/>
      <point x="500" y="0" type="line"/>
      <point x="500" y="0"/>
      <point x="631" y="0"/>
    </contour>
    <contour>
      <point x="324" y="333" type="curve"/>
      <point x="337" y="446" type="line"/>
      <point x="207" y="450"/>
      <point x="62" y="360"/>
      <point x="46" y="228" type="curve" smooth="yes"/>
      <point x="30" y="96"/>
      <point x="126" y="-4"/>
      <point x="264" y="-12" type="curve" smooth="yes"/>
      <point x="381" y="-19"/>
      <point x="461" y="31"/>
      <point x="505" y="97" type="curve"/>
      <point x="422" y="179" type="line"/>
      <point x="398" y="141"/>
      <point x="364" y="112"/>
      <point x="300" y="116" type="curve" smooth="yes"/>
      <point x="235" y="120"/>
      <point x="188" y="165"/>
      <point x="196" y="227" type="curve" smooth="yes"/>
      <point x="203" y="285"/>
      <point x="260" y="337"/>
    </contour>
    <contour>
      <point x="547" y="448" type="line"/>
      <point x="420" y="198" type="line"/>
      <point x="517" y="136" type="line"/>
      <point x="679" y="448" type="line"/>
    </contour>
  </outline>
</glyph>
<glyph name="parenright" format="2">
  <advance width="409"/>
  <unicode hex="0029"/>
  <outline>
    <contour>
      <point x="342" y="287" type="curve" smooth="yes"/>
      <point x="342" y="287" type="line" smooth="yes"/>
      <point x="367" y="491"/>
      <point x="305" y="665"/>
      <point x="232" y="761" type="curve"/>
      <point x="111" y="714" type="line"/>
      <point x="177" y="620"/>
      <point x="219" y="480"/>
      <point x="197" y="296" type="curve" smooth="yes"/>
      <point x="174" y="113"/>
      <point x="99" y="-21"/>
      <point x="11" y="-106" type="curve"/>
      <point x="118" y="-166" type="line"/>
      <point x="214" y="-81"/>
      <point x="317" y="84"/>
    </contour>
  </outline>
</glyph>
<glyph name="comma" format="2">
  <advance width="205"/>
  <unicode hex="002C"/>
  <outline>
    <contour>
      <point x="52" y="-214" type="line"/>
      <point x="111" y="-175"/>
      <point x="147" y="-87"/>
      <point x="136" y="-30" type="curve"/>
      <point x="14" y="-29" type="line"/>
      <point x="23" y="-76"/>
      <point x="9" y="-138"/>
      <point x="-20" y="-166" type="curve"/>
    </contour>
  </outline>
</glyph>
<glyph name="hyphen" format="2">
  <advance width="306"/>
  <unicode hex="002D"/>
  <outline>
    <contour>
      <point x="90" y="290" type="line"/>
      <point x="75" y="168" type="line"/>
      <point x="263" y="168" type="line"/>
      <point x="278" y="290" type="line"/>
    </contour>
  </outline>
</glyph>
<glyph name="two" format="2">
  <advance width="586"/>
  <unicode hex="0032"/>
  <outline>
    <contour>
      <point x="30" y="0" type="curve"/>
      <point x="509" y="0" type="line"/>
      <point x="526" y="140" type="line"/>
      <point x="280" y="140" type="line"/>
      <point x="348" y="121" type="line"/>
      <point x="506" y="276"/>
      <point x="558" y="356"/>
      <point x="558" y="472" type="curve" smooth="yes"/>
      <point x="558" y="588"/>
      <point x="483" y="671"/>
      <point x="326" y="671" type="curve" smooth="yes"/>
      <point x="146" y="671"/>
      <point x="65" y="551"/>
      <point x="65" y="453" type="curve" smooth="yes"/>
      <point x="65" y="382"/>
      <point x="103" y="308"/>
      <point x="136" y="275" type="curve"/>
      <point x="235" y="356" type="line"/>
      <point x="217" y="378"/>
      <point x="207" y="405"/>
      <point x="207" y="440" type="curve" smooth="yes"/>
      <point x="207" y="490"/>
      <point x="245" y="531"/>
      <point x="308" y="531" type="curve" smooth="yes"/>
      <point x="367" y="531"/>
      <point x="405" y="500"/>
      <point x="405" y="437" type="curve" smooth="yes"/>
      <point x="405" y="361"/>
      <point x="359" y="299"/>
    </contour>
  </outline>
</glyph>
<glyph name="six" format="2">
  <advance width="586"/>
  <unicode hex="0036"/>
  <outline>
    <contour>
      <point x="294" y="-8" type="curve" smooth="yes"/>
      <point x="478" y="-8"/>
      <point x="552" y="139"/>
      <point x="552" y="236" type="curve" smooth="yes"/>
      <point x="552" y="388"/>
      <point x="434" y="434"/>
      <point x="374" y="434" type="curve" smooth="yes"/>
      <point x="274" y="434"/>
      <point x="222" y="389"/>
      <point x="179" y="312" type="curve"/>
      <point x="214" y="306" type="line"/>
      <point x="225" y="394"/>
      <point x="310" y="515"/>
      <point x="477" y="568" type="curve"/>
      <point x="393" y="679" type="line"/>
      <point x="142" y="554"/>
      <point x="56" y="391"/>
      <point x="56" y="248" type="curve" smooth="yes"/>
      <point x="56" y="84"/>
      <point x="156" y="-8"/>
    </contour>
    <contour>
      <point x="295" y="122" type="curve" smooth="yes"/>
      <point x="239" y="122"/>
      <point x="199" y="164"/>
      <point x="199" y="216" type="curve" smooth="yes"/>
      <point x="199" y="258"/>
      <point x="222" y="315"/>
      <point x="304" y="315" type="curve" smooth="yes"/>
      <point x="360" y="315"/>
      <point x="401" y="285"/>
      <point x="401" y="230" type="curve" smooth="yes"/>
      <point x="401" y="190"/>
      <point x="377" y="122"/>
    </contour>
  </outline>
</glyph>
<glyph name="greater" format="2">
  <advance width="556"/>
  <unicode hex="003E"/>
  <outline>
    <contour>
      <point x="83" y="158" type="curve"/>
      <point x="62" y="-14" type="line"/>
      <point x="62" y="-14" type="line"/>
      <point x="222" y="72"/>
      <point x="379" y="157"/>
      <point x="539" y="243" type="curve"/>
      <point x="400" y="328"/>
      <point x="264" y="414"/>
      <point x="125" y="499" type="curve"/>
      <point x="104" y="328" type="line"/>
      <point x="150" y="300"/>
      <point x="195" y="271"/>
      <point x="241" y="243" type="curve"/>
      <point x="188" y="215"/>
      <point x="136" y="186"/>
    </contour>
  </outline>
</glyph>
<glyph name="B" format="2">
  <advance width="638"/>
  <unicode hex="0042"/>
  <anchor x="288" y="0" name="bottom"/>
  <anchor x="288" y="700" name="top"/>
  <outline>
    <contour>
      <point x="371" y="736" type="curve" smooth="yes"/>
      <point x="155" y="736" type="line"/>
      <point x="65" y="0" type="line"/>
      <point x="310" y="0" type="line" smooth="yes"/>
      <point x="448" y="0"/>
      <point x="587" y="64"/>
      <point x="587" y="227" type="curve" smooth="yes"/>
      <point x="587" y="321"/>
      <point x="525" y="364"/>
      <point x="464" y="379" type="curve"/>
      <point x="469" y="374" type="line"/>
      <point x="564" y="402"/>
      <point x="595" y="492"/>
      <point x="595" y="570" type="curve" smooth="yes"/>
      <point x="595" y="689"/>
      <point x="509" y="736"/>
    </contour>
    <contour>
      <point x="346" y="435" type="curve" smooth="yes"/>
      <point x="268" y="435" type="line"/>
      <point x="289" y="601" type="line"/>
      <point x="357" y="601" type="line" smooth="yes"/>
      <point x="409" y="601"/>
      <point x="442" y="577"/>
      <point x="442" y="531" type="curve" smooth="yes"/>
      <point x="442" y="483"/>
      <point x="409" y="435"/>
    </contour>
    <contour>
      <point x="315" y="135" type="curve" smooth="yes"/>
      <point x="232" y="135" type="line"/>
      <point x="253" y="309" type="line"/>
      <point x="326" y="309" type="line" smooth="yes"/>
      <point x="384" y="309"/>
      <point x="440" y="293"/>
      <point x="440" y="234" type="curve" smooth="yes"/>
      <point x="440" y="168"/>
      <point x="384" y="135"/>
    </contour>
  </outline>
</glyph>
<glyph name="D" format="2">
  <advance width="767"/>
  <unicode hex="0044"/>
  <anchor x="356" y="0" name="bottom"/>
  <anchor x="191" y="350" name="center"/>
  <anchor x="396" y="700" name="top"/>
  <outline>
    <contour>
      <point x="65" y="0" type="line"/>
      <point x="353" y="0" type="line"/>
      <point x="538" y="0"/>
      <point x="710" y="136"/>
      <point x="734" y="355" type="curve"/>
      <point x="754" y="540"/>
      <point x="679" y="736"/>
      <point x="415" y="736" type="curve"/>
      <point x="155" y="736" type="line"/>
    </contour>
    <contour>
      <point x="227" y="140" type="line"/>
      <point x="283" y="597" type="line"/>
      <point x="401" y="597" type="line"/>
      <point x="468" y="597"/>
      <point x="609" y="557"/>
      <point x="586" y="365" type="curve"/>
      <point x="570" y="217"/>
      <point x="475" y="140"/>
      <point x="345" y="140" type="curve"/>
    </contour>
  </outline>
</glyph>
<glyph name="E" format="2">
  <advance width="667"/>
  <unicode hex="0045"/>
  <anchor x="360" y="0" name="bottom"/>
  <anchor x="554" y="10" name="ogonek"/>
  <anchor x="397" y="730" name="top"/>
  <anchor x="3" y="700" name="topleft"/>
  <outline>
    <contour>
      <point x="155" y="736" type="line"/>
      <point x="65" y="0" type="line"/>
      <point x="581" y="0" type="line"/>
      <point x="598" y="139" type="line"/>
      <point x="232" y="139" type="line"/>
      <point x="252" y="299" type="line"/>
      <point x="563" y="299" type="line"/>
      <point x="580" y="437" type="line"/>
      <point x="269" y="437" type="line"/>
      <point x="289" y="601" type="line"/>
      <point x="641" y="601" type="line"/>
      <point x="657" y="736" type="line"/>
    </contour>
  </outline>
</glyph>
<glyph name="I" format="2">
  <advance width="341"/>
  <unicode hex="0049"/>
  <anchor x="137" y="0" name="bottom"/>
  <anchor x="215" y="0" name="ogonek"/>
  <anchor x="227" y="730" name="top"/>
  <anchor x="-8" y="700" name="topleft"/>
  <outline>
    <contour>
      <point x="155" y="736" type="line"/>
      <point x="65" y="0" type="line"/>
      <point x="215" y="0" type="line"/>
      <point x="305" y="736" type="line"/>
    </contour>
  </outline>
</glyph>
<glyph name="L" format="2">
  <advance width="638"/>
  <unicode hex="004C"/>
  <anchor x="298" y="0" name="bottom"/>
  <anchor x="343" y="368" name="center"/>
  <anchor x="227" y="756" name="top"/>
  <anchor x="671" y="736" name="topright"/>
  <outline>
    <contour>
      <point x="155" y="736" type="line"/>
      <point x="65" y="0" type="line"/>
      <point x="556" y="0" type="line"/>
      <point x="573" y="140" type="line"/>
      <point x="227" y="140" type="line"/>
      <point x="300" y="736" type="line"/>
    </contour>
  </outline>
</glyph>
<glyph name="M" format="2">
  <advance width="948"/>
  <unicode hex="004D"/>
  <anchor x="461" y="0" name="bottom"/>
  <anchor x="501" y="700" name="top"/>
  <outline>
    <contour>
      <point x="204" y="0" type="line"/>
      <point x="257" y="433" type="line"/>
      <point x="224" y="364" type="line"/>
      <point x="436" y="10" type="line"/>
      <point x="438" y="10" type="line"/>
      <point x="731" y="364" type="line"/>
      <point x="731" y="439" type="line"/>
      <point x="677" y="0" type="line"/>
      <point x="822" y="0" type="line"/>
      <point x="916" y="766" type="line"/>
      <point x="914" y="766" type="line"/>
      <point x="437" y="200" type="line"/>
      <point x="497" y="186" type="line"/>
      <point x="159" y="766" type="line"/>
      <point x="158" y="766" type="line"/>
      <point x="64" y="0" type="line"/>
    </contour>
  </outline>
</glyph>
<glyph name="V" format="2">
  <advance width="744"/>
  <unicode hex="0056"/>
  <anchor x="346" y="0" name="bottom"/>
  <anchor x="346" y="700" name="top"/>
  <outline>
    <contour>
      <point x="340" y="-28" type="line"/>
      <point x="345" y="-28" type="line"/>
      <point x="772" y="736" type="line"/>
      <point x="600" y="736" type="line"/>
      <point x="342" y="223" type="line"/>
      <point x="424" y="206" type="line"/>
      <point x="274" y="736" type="line"/>
      <point x="100" y="736" type="line"/>
    </contour>
  </outline>
</glyph>
<glyph name="X" format="2">
  <advance width="681"/>
  <unicode hex="0058"/>
  <outline>
    <contour>
      <point x="80" y="736" type="line"/>
      <point x="468" y="0" type="line"/>
      <point x="655" y="0" type="line"/>
      <point x="265" y="736" type="line"/>
    </contour>
    <contour>
      <point x="-20" y="0" type="line"/>
      <point x="160" y="0" type="line"/>
      <point x="343" y="266" type="line"/>
      <point x="292" y="412" type="line"/>
    </contour>
    <contour>
      <point x="377" y="466" type="line"/>
      <point x="437" y="341" type="line"/>
      <point x="738" y="736" type="line"/>
      <point x="562" y="736" type="line"/>
    </contour>
  </outline>
</glyph>
<glyph name="l" format="2">
  <advance width="285"/>
  <unicode hex="006C"/>
  <anchor x="120" y="0" name="bottom"/>
  <anchor x="147" y="309" name="center"/>
  <anchor x="203" y="776" name="top"/>
  <anchor x="350" y="736" name="topright"/>
  <outline>
    <contour>
      <point x="142" y="789" type="line"/>
      <point x="46" y="0" type="line"/>
      <point x="186" y="0" type="line"/>
      <point x="282" y="789" type="line"/>
    </contour>
  </outline>
</glyph>
<glyph name="r" format="2">
  <advance width="414"/>
  <unicode hex="0072"/>
  <anchor x="190" y="0" name="bottom"/>
  <anchor x="190" y="500" name="top"/>
  <outline>
    <contour>
      <point x="225" y="437" type="line"/>
      <point x="99" y="437" type="line"/>
      <point x="46" y="0" type="line"/>
      <point x="185" y="0" type="line"/>
      <point x="206" y="171" type="line"/>
      <point x="215" y="247"/>
      <point x="284" y="330"/>
      <point x="381" y="319" type="curve"/>
      <point x="405" y="459" type="line"/>
      <point x="356" y="459"/>
      <point x="268" y="417"/>
      <point x="221" y="340" type="curve"/>
    </contour>
  </outline>
</glyph>
<glyph name="s" format="2">
  <advance width="448"/>
  <unicode hex="0073"/>
  <anchor x="174" y="0" name="bottom"/>
  <anchor x="270" y="500" name="top"/>
  <outline>
    <contour>
      <point x="199" y="-9" type="curve" smooth="yes"/>
      <point x="316" y="-10"/>
      <point x="380" y="57"/>
      <point x="389" y="135" type="curve"/>
      <point x="397" y="200"/>
      <point x="362" y="240"/>
      <point x="302" y="265" type="curve"/>
      <point x="260" y="282"/>
      <point x="208" y="291"/>
      <point x="208" y="324" type="curve" smooth="yes"/>
      <point x="208" y="344"/>
      <point x="221" y="363"/>
      <point x="259" y="363" type="curve" smooth="yes"/>
      <point x="293" y="363"/>
      <point x="323" y="348"/>
      <point x="351" y="320" type="curve"/>
      <point x="414" y="399" type="line"/>
      <point x="360" y="445"/>
      <point x="297" y="456"/>
      <point x="237" y="456" type="curve" smooth="yes"/>
      <point x="96" y="456"/>
      <point x="65" y="358"/>
      <point x="65" y="305" type="curve" smooth="yes"/>
      <point x="65" y="253"/>
      <point x="93" y="207"/>
      <point x="162" y="180" type="curve"/>
      <point x="204" y="164"/>
      <point x="247" y="154"/>
      <point x="247" y="124" type="curve" smooth="yes"/>
      <point x="247" y="109"/>
      <point x="239" y="87"/>
      <point x="198" y="87" type="curve" smooth="yes"/>
      <point x="176" y="87"/>
      <point x="134" y="87"/>
      <point x="81" y="148" type="curve"/>
      <point x="14" y="75" type="line"/>
      <point x="70" y="1"/>
      <point x="163" y="-9"/>
    </contour>
  </outline>
</glyph>
<glyph name="w" format="2">
  <advance width="684"/>
  <unicode hex="0077"/>
  <anchor x="315" y="0" name="bottom"/>
  <anchor x="369" y="437" name="top"/>
  <outline>
    <contour>
      <point x="441" y="-10" type="line"/>
      <point x="449" y="-10" type="line"/>
      <point x="697" y="437" type="line"/>
      <point x="561" y="437" type="line"/>
      <point x="450" y="218" type="line"/>
      <point x="476" y="220" type="line"/>
      <point x="407" y="437" type="line"/>
      <point x="288" y="437" type="line"/>
      <point x="305" y="387" type="line"/>
      <point x="198" y="209" type="line"/>
      <point x="246" y="202" type="line"/>
      <point x="169" y="437" type="line"/>
      <point x="33" y="437" type="line"/>
      <point x="173" y="-9" type="line"/>
      <point x="181" y="-9" type="line"/>
      <point x="339" y="272" type="line"/>
    </contour>
  </outline>
</glyph>
<glyph name="x" format="2">
  <advance width="517"/>
  <unicode hex="0078"/>
  <outline>
    <contour>
      <point x="489" y="0" type="line"/>
      <point x="209" y="437" type="line"/>
      <point x="37" y="437" type="line"/>
      <point x="320" y="0" type="line"/>
    </contour>
    <contour>
      <point x="280" y="298" type="line"/>
      <point x="316" y="197" type="line"/>
      <point x="519" y="437" type="line"/>
      <point x="380" y="437" type="line"/>
    </contour>
    <contour>
      <point x="242" y="140" type="line"/>
      <point x="190" y="234" type="line"/>
      <point x="-12" y="0" type="line"/>
      <point x="127" y="0" type="line"/>
    </contour>
  </outline>
</glyph>
<glyph name="z" format="2">
  <advance width="522"/>
  <unicode hex="007A"/>
  <anchor x="234" y="0" name="bottom"/>
  <anchor x="288" y="437" name="top"/>
  <outline>
    <contour>
      <point x="150" y="323" type="curve" smooth="yes"/>
      <point x="300" y="323" type="line"/>
      <point x="284" y="363" type="line"/>
      <point x="-9" y="0" type="line"/>
      <point x="434" y="0" type="line"/>
      <point x="448" y="114" type="line"/>
      <point x="183" y="114" type="line"/>
      <point x="205" y="85" type="line"/>
      <point x="490" y="437" type="line"/>
      <point x="213" y="437" type="line" smooth="yes"/>
      <point x="188" y="437"/>
      <point x="179" y="437"/>
      <point x="183" y="465" type="curve" smooth="yes"/>
      <point x="184" y="479" type="line"/>
      <point x="79" y="479" type="line"/>
      <point x="72" y="419" type="line" smooth="yes"/>
      <point x="65" y="360"/>
      <point x="102" y="323"/>
    </contour>
  </outline>
</glyph>
<glyph name="exclamdown" format="2">
  <advance width="202"/>
  <unicode hex="00A1"/>
  <outline>
    <contour>
      <point x="104" y="-214" type="line"/>
      <point x="174" y="352" type="line"/>
      <point x="49" y="352" type="line"/>
      <point x="-21" y="-214" type="line"/>
    </contour>
    <contour>
      <point x="142" y="565" type="curve"/>
      <point x="94" y="568"/>
      <point x="59" y="542"/>
      <point x="54" y="499" type="curve"/>
      <point x="49" y="458"/>
      <point x="77" y="424"/>
      <point x="124" y="421" type="curve"/>
      <point x="171" y="418"/>
      <point x="210" y="448"/>
      <point x="215" y="489" type="curve"/>
      <point x="220" y="532"/>
      <point x="190" y="562"/>
    </contour>
  </outline>
</glyph>
<glyph name="currency" format="2">
  <advance width="507"/>
  <unicode hex="00A4"/>
  <outline>
    <contour>
      <point x="420" y="432" type="curve"/>
      <point x="445" y="453" type="line"/>
      <point x="393" y="515" type="line"/>
      <point x="366" y="493" type="line"/>
      <point x="366" y="493" type="line"/>
      <point x="344" y="507"/>
      <point x="318" y="517"/>
      <point x="290" y="519" type="curve" smooth="yes"/>
      <point x="261" y="521"/>
      <point x="235" y="513"/>
      <point x="208" y="503" type="curve"/>
      <point x="187" y="528" type="line"/>
      <point x="122" y="473" type="line"/>
      <point x="129" y="464"/>
      <point x="135" y="456"/>
      <point x="142" y="447" type="curve"/>
      <point x="126" y="425"/>
      <point x="115" y="400"/>
      <point x="111" y="371" type="curve" smooth="yes"/>
      <point x="111" y="371" type="line" smooth="yes"/>
      <point x="107" y="341"/>
      <point x="112" y="312"/>
      <point x="123" y="288" type="curve"/>
      <point x="96" y="265" type="line"/>
      <point x="148" y="203" type="line"/>
      <point x="176" y="226" type="line"/>
      <point x="176" y="226" type="line"/>
      <point x="197" y="213"/>
      <point x="222" y="204"/>
      <point x="251" y="202" type="curve" smooth="yes"/>
      <point x="280" y="201"/>
      <point x="307" y="206"/>
      <point x="332" y="217" type="curve"/>
      <point x="340" y="209"/>
      <point x="347" y="199"/>
      <point x="355" y="191" type="curve"/>
      <point x="420" y="246" type="line"/>
      <point x="400" y="272" type="line"/>
      <point x="417" y="295"/>
      <point x="429" y="321"/>
      <point x="432" y="351" type="curve" smooth="yes"/>
      <point x="436" y="379"/>
      <point x="431" y="407"/>
    </contour>
    <contour>
      <point x="195" y="365" type="curve" smooth="yes"/>
      <point x="195" y="365" type="line" smooth="yes"/>
      <point x="200" y="408"/>
      <point x="239" y="440"/>
      <point x="281" y="438" type="curve" smooth="yes"/>
      <point x="323" y="435"/>
      <point x="354" y="398"/>
      <point x="349" y="355" type="curve" smooth="yes"/>
      <point x="344" y="313"/>
      <point x="304" y="281"/>
      <point x="262" y="283" type="curve" smooth="yes"/>
      <point x="220" y="286"/>
      <point x="189" y="323"/>
    </contour>
  </outline>
</glyph>
<glyph name="ordfeminine" format="2">
  <advance width="389"/>
  <unicode hex="00AA"/>
  <outline>
    <contour>
      <point x="175" y="427" type="curve"/>
      <point x="233" y="427"/>
      <point x="266" y="471"/>
      <point x="269" y="471" type="curve"/>
      <point x="266" y="488" type="line"/>
      <point x="259" y="434" type="line"/>
      <point x="365" y="434" type="line"/>
      <point x="400" y="724" type="line"/>
      <point x="300" y="724" type="line"/>
      <point x="292" y="697" type="line"/>
      <point x="278" y="717"/>
      <point x="259" y="736"/>
      <point x="210" y="736" type="curve"/>
      <point x="146" y="736"/>
      <point x="80" y="675"/>
      <point x="69" y="579" type="curve"/>
      <point x="56" y="474"/>
      <point x="105" y="427"/>
    </contour>
    <contour>
      <point x="220" y="512" type="curve"/>
      <point x="190" y="512"/>
      <point x="171" y="543"/>
      <point x="176" y="583" type="curve"/>
      <point x="181" y="623"/>
      <point x="207" y="651"/>
      <point x="236" y="651" type="curve"/>
      <point x="261" y="651"/>
      <point x="276" y="636"/>
      <point x="281" y="611" type="curve"/>
      <point x="273" y="550" type="line"/>
      <point x="259" y="526"/>
      <point x="244" y="512"/>
    </contour>
  </outline>
</glyph>
<glyph name="guillemetleft" format="2">
  <advance width="613"/>
  <unicode hex="00AB"/>
  <outline>
    <contour>
      <point x="149" y="244" type="line"/>
      <point x="298" y="39" type="line"/>
      <point x="315" y="181" type="line"/>
      <point x="282" y="244" type="line"/>
      <point x="331" y="306" type="line"/>
      <point x="348" y="448" type="line"/>
    </contour>
    <contour>
      <point x="323" y="244" type="line"/>
      <point x="473" y="39" type="line"/>
      <point x="490" y="181" type="line"/>
      <point x="456" y="244" type="line"/>
      <point x="506" y="307" type="line"/>
      <point x="523" y="448" type="line"/>
    </contour>
  </outline>
</glyph>
<glyph name="logicalnot" format="2">
  <advance width="467"/>
  <unicode hex="00AC"/>
  <outline>
    <contour>
      <point x="64" y="329" type="line"/>
      <point x="46" y="189" type="line"/>
      <point x="268" y="189" type="line"/>
      <point x="256" y="91" type="line"/>
      <point x="401" y="91" type="line"/>
      <point x="431" y="329" type="line"/>
    </contour>
  </outline>
</glyph>
<glyph name="plusminus" format="2">
  <advance width="535"/>
  <unicode hex="00B1"/>
  <outline>
    <contour>
      <point x="279" y="582" type="line"/>
      <point x="264" y="458" type="line"/>
      <point x="144" y="458" type="line"/>
      <point x="129" y="337" type="line"/>
      <point x="249" y="337" type="line"/>
      <point x="234" y="215" type="line"/>
      <point x="361" y="215" type="line"/>
      <point x="376" y="337" type="line"/>
      <point x="496" y="337" type="line"/>
      <point x="511" y="458" type="line"/>
      <point x="391" y="458" type="line"/>
      <point x="406" y="582" type="line"/>
    </contour>
    <contour>
      <point x="110" y="183" type="line"/>
      <point x="95" y="61" type="line"/>
      <point x="462" y="61" type="line"/>
      <point x="477" y="183" type="line"/>
    </contour>
  </outline>
</glyph>
<glyph name="micro" format="2">
  <advance width="584"/>
  <unicode hex="00B5"/>
  <outline>
    <contour>
      <point x="184" y="-21" type="curve"/>
      <point x="262" y="-21"/>
      <point x="320" y="16"/>
      <point x="357" y="71" type="curve"/>
      <point x="358" y="0" type="line"/>
      <point x="485" y="0" type="line"/>
      <point x="539" y="437" type="line"/>
      <point x="399" y="437" type="line"/>
      <point x="377" y="259" type="line"/>
      <point x="366" y="166"/>
      <point x="318" y="98"/>
      <point x="256" y="98" type="curve"/>
      <point x="215" y="98"/>
      <point x="203" y="123"/>
      <point x="205" y="162" type="curve"/>
      <point x="239" y="437" type="line"/>
      <point x="99" y="437" type="line"/>
      <point x="59" y="110" type="line"/>
      <point x="22" y="-201" type="line"/>
      <point x="137" y="-201" type="line"/>
      <point x="185" y="189" type="line"/>
      <point x="65" y="112" type="line"/>
      <point x="58" y="35"/>
      <point x="105" y="-21"/>
    </contour>
  </outline>
</glyph>
<glyph name="guillemetright" format="2">
  <advance width="613"/>
  <unicode hex="00BB"/>
  <outline>
    <contour>
      <point x="439" y="244" type="line"/>
      <point x="290" y="39" type="line"/>
      <point x="273" y="181" type="line"/>
      <point x="306" y="244" type="line"/>
      <point x="257" y="306" type="line"/>
      <point x="240" y="448" type="line"/>
    </contour>
    <contour>
      <point x="265" y="244" type="line"/>
      <point x="115" y="39" type="line"/>
      <point x="98" y="181" type="line"/>
      <point x="132" y="244" type="line"/>
      <point x="82" y="307" type="line"/>
      <point x="65" y="448" type="line"/>
    </contour>
  </outline>
</glyph>
<glyph name="onequarter" format="2">
  <advance width="934"/>
  <unicode hex="00BC"/>
  <outline>
    <contour>
      <point x="734" y="770" type="curve"/>
      <point x="608" y="770" type="line"/>
      <point x="481" y="513"/>
      <point x="356" y="257"/>
      <point x="229" y="0" type="curve"/>
      <point x="355" y="0" type="line"/>
      <point x="482" y="257"/>
      <point x="607" y="513"/>
    </contour>
    <component base="onesuperior"/>
    <component base="foursuperior" xOffset="484" yOffset="-255"/>
  </outline>
</glyph>
<glyph name="questiondown" format="2">
  <advance width="444"/>
  <unicode hex="00BF"/>
  <outline>
    <contour>
      <point x="337" y="273" type="curve" smooth="yes"/>
      <point x="349" y="372" type="line"/>
      <point x="224" y="372" type="line"/>
      <point x="214" y="292" type="line" smooth="yes"/>
      <point x="206" y="230"/>
      <point x="137" y="193"/>
      <point x="105" y="171" type="curve" smooth="yes"/>
      <point x="28" y="118"/>
      <point x="-19" y="57"/>
      <point x="-19" y="-29" type="curve" smooth="yes"/>
      <point x="-19" y="-128"/>
      <point x="55" y="-208"/>
      <point x="158" y="-208" type="curve" smooth="yes"/>
      <point x="326" y="-208"/>
      <point x="371" y="-88"/>
      <point x="392" y="-40" type="curve"/>
      <point x="358" y="-26"/>
      <point x="322" y="-12"/>
      <point x="288" y="1" type="curve"/>
      <point x="288" y="1" type="line"/>
      <point x="262" y="-60"/>
      <point x="246" y="-86"/>
      <point x="173" y="-86" type="curve" smooth="yes"/>
      <point x="132" y="-86"/>
      <point x="110" y="-57"/>
      <point x="110" y="-19" type="curve" smooth="yes"/>
      <point x="110" y="33"/>
      <point x="142" y="79"/>
      <point x="205" y="122" type="curve" smooth="yes"/>
      <point x="270" y="166"/>
      <point x="326" y="184"/>
    </contour>
    <contour>
      <point x="311" y="553" type="curve" smooth="yes"/>
      <point x="311" y="553" type="line" smooth="yes"/>
      <point x="274" y="553"/>
      <point x="232" y="522"/>
      <point x="232" y="475" type="curve" smooth="yes"/>
      <point x="232" y="438"/>
      <point x="262" y="409"/>
      <point x="293" y="409" type="curve" smooth="yes"/>
      <point x="332" y="409"/>
      <point x="375" y="444"/>
      <point x="375" y="489" type="curve" smooth="yes"/>
      <point x="375" y="528"/>
      <point x="344" y="553"/>
    </contour>
  </outline>
</glyph>
<glyph name="Oslash" format="2">
  <advance width="858"/>
  <unicode hex="00D8"/>
  <anchor x="402" y="0" name="bottom"/>
  <anchor x="493" y="736" name="top"/>
  <anchor x="463" y="350" name="center"/>
  <anchor x="610" y="10" name="ogonek"/>
  <anchor x="40" y="700" name="topleft"/>
  <anchor x="715" y="586" name="topright"/>
  <outline>
    <contour>
      <point x="854" y="675" type="line"/>
      <point x="792" y="739" type="line"/>
      <point x="101" y="40" type="line"/>
      <point x="165" y="-23" type="line"/>
    </contour>
    <component base="O"/>
  </outline>
</glyph>
<glyph name="germandbls" format="2">
  <advance width="638"/>
  <unicode hex="00DF"/>
  <outline>
    <contour>
      <point x="374" y="-7" type="curve" smooth="yes"/>
      <point x="549" y="-13"/>
      <point x="587" y="132"/>
      <point x="587" y="224" type="curve" smooth="yes"/>
      <point x="587" y="318"/>
      <point x="557" y="365"/>
      <point x="505" y="395" type="curve"/>
      <point x="553" y="417"/>
      <point x="584" y="467"/>
      <point x="584" y="519" type="curve" smooth="yes"/>
      <point x="584" y="617"/>
      <point x="511" y="670"/>
      <point x="405" y="670" type="curve"/>
      <point x="272" y="670"/>
      <point x="164" y="611"/>
      <point x="143" y="484" type="curve" smooth="yes"/>
      <point x="136" y="441" type="line"/>
      <point x="71" y="441" type="line"/>
      <point x="49" y="327" type="line"/>
      <point x="114" y="327" type="line"/>
      <point x="51" y="0" type="line"/>
      <point x="191" y="0" type="line"/>
      <point x="272" y="419" type="line" smooth="yes"/>
      <point x="289" y="506"/>
      <point x="317" y="556"/>
      <point x="384" y="556" type="curve" smooth="yes"/>
      <point x="423" y="556"/>
      <point x="441" y="541"/>
      <point x="441" y="509" type="curve" smooth="yes"/>
      <point x="441" y="477"/>
      <point x="422" y="448"/>
      <point x="380" y="452" type="curve"/>
      <point x="366" y="331" type="line"/>
      <point x="372" y="330" type="line"/>
      <point x="422" y="329"/>
      <point x="449" y="295"/>
      <point x="447" y="231" type="curve" smooth="yes"/>
      <point x="447" y="195"/>
      <point x="436" y="98"/>
      <point x="369" y="98" type="curve" smooth="yes"/>
      <point x="350" y="98"/>
      <point x="324" y="111"/>
      <point x="311" y="126" type="curve"/>
      <point x="252" y="39" type="line"/>
      <point x="272" y="12"/>
      <point x="327" y="-7"/>
    </contour>
  </outline>
</glyph>
<glyph name="ae" format="2">
  <advance width="836"/>
  <unicode hex="00E6"/>
  <anchor x="393" y="0" name="bottom"/>
  <anchor x="447" y="437" name="top"/>
  <outline>
    <contour>
      <point x="555" y="-12" type="curve" smooth="yes"/>
      <point x="600" y="-12"/>
      <point x="654" y="1"/>
      <point x="700" y="23" type="curve"/>
      <point x="651" y="130" type="line"/>
      <point x="623" y="115"/>
      <point x="597" y="107"/>
      <point x="569" y="107" type="curve" smooth="yes"/>
      <point x="545" y="107"/>
      <point x="448" y="117"/>
      <point x="463" y="237" type="curve"/>
      <point x="473" y="306"/>
      <point x="513" y="349"/>
      <point x="570" y="349" type="curve" smooth="yes"/>
      <point x="608" y="349"/>
      <point x="649" y="336"/>
      <point x="661" y="278" type="curve"/>
      <point x="691" y="290" type="line"/>
      <point x="411" y="250" type="line"/>
      <point x="416" y="176" type="line"/>
      <point x="809" y="231" type="line"/>
      <point x="796" y="431"/>
      <point x="667" y="458"/>
      <point x="590" y="458" type="curve" smooth="yes"/>
      <point x="456" y="458"/>
      <point x="339" y="365"/>
      <point x="324" y="238" type="curve"/>
      <point x="297" y="8"/>
      <point x="494" y="-12"/>
    </contour>
    <contour>
      <point x="195" y="-11" type="curve" smooth="yes"/>
      <point x="273" y="-11"/>
      <point x="336" y="14"/>
      <point x="380" y="62" type="curve"/>
      <point x="393" y="162" type="line"/>
      <point x="341" y="165" type="line"/>
      <point x="336" y="127" type="line"/>
      <point x="317" y="106"/>
      <point x="279" y="85"/>
      <point x="244" y="83" type="curve" smooth="yes"/>
      <point x="213" y="83"/>
      <point x="182" y="92"/>
      <point x="182" y="125" type="curve" smooth="yes"/>
      <point x="182" y="144"/>
      <point x="192" y="171"/>
      <point x="244" y="171" type="curve" smooth="yes"/>
      <point x="274" y="171"/>
      <point x="312" y="165"/>
      <point x="349" y="141" type="curve"/>
      <point x="381" y="220" type="line"/>
      <point x="327" y="256"/>
      <point x="295" y="264"/>
      <point x="221" y="264" type="curve" smooth="yes"/>
      <point x="76" y="264"/>
      <point x="27" y="181"/>
      <point x="27" y="121" type="curve" smooth="yes"/>
      <point x="27" y="29"/>
      <point x="122" y="-11"/>
    </contour>
    <contour>
      <point x="309" y="223" type="line"/>
      <point x="449" y="269" type="line"/>
      <point x="452" y="289" type="line" smooth="yes"/>
      <point x="471" y="441"/>
      <point x="305" y="458"/>
      <point x="259" y="458" type="curve" smooth="yes"/>
      <point x="173" y="458"/>
      <point x="107" y="422"/>
      <point x="59" y="380" type="curve"/>
      <point x="118" y="288" type="line"/>
      <point x="139" y="313"/>
      <point x="179" y="345"/>
      <point x="226" y="345" type="curve" smooth="yes"/>
      <point x="257" y="345"/>
      <point x="323" y="339"/>
      <point x="313" y="259" type="curve"/>
    </contour>
  </outline>
</glyph>
<glyph name="dcroat" format="2">
  <advance width="595"/>
  <unicode hex="0111"/>
  <anchor x="327" y="0" name="bottom"/>
  <anchor x="327" y="250" name="center"/>
  <anchor x="327" y="500" name="top"/>
  <anchor x="664" y="500" name="topright"/>
  <outline>
    <contour>
      <point x="347" y="700" type="line"/>
      <point x="335" y="601" type="line"/>
      <point x="643" y="601" type="line"/>
      <point x="655" y="700" type="line"/>
    </contour>
    <component base="d"/>
  </outline>
</glyph>
<glyph name="Hbar" format="2">
  <advance width="966"/>
  <unicode hex="0126"/>
  <anchor x="440" y="0" name="bottom"/>
  <anchor x="480" y="360" name="center"/>
  <anchor x="520" y="740" name="top"/>
  <anchor x="9" y="700" name="topleft"/>
  <outline>
    <contour>
      <point x="139" y="606" type="line"/>
      <point x="130" y="529" type="line"/>
      <point x="905" y="529" type="line"/>
      <point x="914" y="606" type="line"/>
    </contour>
    <component base="H" xOffset="67"/>
  </outline>
</glyph>
<glyph name="kgreenlandic" format="2">
  <advance width="562"/>
  <unicode hex="0138"/>
  <outline>
    <contour>
      <point x="190" y="116" type="line"/>
      <point x="554" y="437" type="line"/>
      <point x="386" y="437" type="line"/>
      <point x="185" y="239" type="line"/>
    </contour>
    <contour>
      <point x="185" y="0" type="line"/>
      <point x="239" y="437" type="line"/>
      <point x="99" y="437" type="line"/>
      <point x="45" y="0" type="line"/>
    </contour>
    <contour>
      <point x="334" y="254" type="line"/>
      <point x="219" y="194" type="line"/>
      <point x="335" y="0" type="line"/>
      <point x="496" y="0" type="line"/>
    </contour>
  </outline>
</glyph>
<glyph name="Lslash" format="2">
  <advance width="640"/>
  <unicode hex="0141"/>
  <anchor x="298" y="0" name="bottom"/>
  <anchor x="343" y="368" name="center"/>
  <anchor x="227" y="756" name="top"/>
  <anchor x="671" y="736" name="topright"/>
  <outline>
    <contour>
      <point x="499" y="472" type="line"/>
      <point x="58" y="346" type="line"/>
      <point x="43" y="225" type="line"/>
      <point x="484" y="351" type="line"/>
    </contour>
    <component base="L"/>
  </outline>
</glyph>
<glyph name="uring" format="2">
  <advance width="596"/>
  <unicode hex="016F"/>
  <anchor x="297" y="-20" name="bottom"/>
  <anchor x="460" y="11" name="ogonek"/>
  <anchor x="327" y="500" name="top"/>
  <anchor x="501" y="321" name="topright"/>
  <outline>
    <contour>
      <point x="274" y="567" type="curve" smooth="yes"/>
      <point x="274" y="567" type="line" smooth="yes"/>
      <point x="274" y="520"/>
      <point x="311" y="481"/>
      <point x="358" y="481" type="curve" smooth="yes"/>
      <point x="412" y="481"/>
      <point x="464" y="530"/>
      <point x="464" y="585" type="curve" smooth="yes"/>
      <point x="464" y="631"/>
      <point x="428" y="670"/>
      <point x="381" y="670" type="curve" smooth="yes"/>
      <point x="327" y="670"/>
      <point x="274" y="621"/>
    </contour>
    <contour>
      <point x="340" y="571" type="curve" smooth="yes"/>
      <point x="340" y="571" type="line" smooth="yes"/>
      <point x="340" y="590"/>
      <point x="355" y="604"/>
      <point x="373" y="604" type="curve" smooth="yes"/>
      <point x="389" y="604"/>
      <point x="399" y="594"/>
      <point x="399" y="578" type="curve" smooth="yes"/>
      <point x="399" y="560"/>
      <point x="384" y="546"/>
      <point x="366" y="546" type="curve" smooth="yes"/>
      <point x="350" y="546"/>
      <point x="340" y="557"/>
    </contour>
    <component base="u"/>
  </outline>
</glyph>
<glyph name="Schwa" format="2">
  <advance width="789"/>
  <unicode hex="018F"/>
  <outline>
    <contour>
      <point x="444" y="743" type="curve" smooth="yes"/>
      <point x="349" y="743"/>
      <point x="227" y="702"/>
      <point x="168" y="651" type="curve"/>
      <point x="225" y="529" type="line"/>
      <point x="265" y="572"/>
      <point x="343" y="602"/>
      <point x="408" y="602" type="curve" smooth="yes"/>
      <point x="504" y="602"/>
      <point x="603" y="548"/>
      <point x="603" y="396" type="curve" smooth="yes"/>
      <point x="603" y="270"/>
      <point x="522" y="119"/>
      <point x="374" y="130" type="curve"/>
      <point x="279" y="136"/>
      <point x="233" y="210"/>
      <point x="221" y="305" type="curve"/>
      <point x="171" y="265" type="line"/>
      <point x="662" y="395" type="line"/>
      <point x="644" y="502" type="line"/>
      <point x="57" y="353" type="line"/>
      <point x="69" y="27"/>
      <point x="297" y="1"/>
      <point x="369" y="1" type="curve" smooth="yes"/>
      <point x="629" y="1"/>
      <point x="758" y="210"/>
      <point x="758" y="398" type="curve" smooth="yes"/>
      <point x="758" y="632"/>
      <point x="596" y="743"/>
    </contour>
  </outline>
</glyph>
<glyph name="nhookleft" format="2">
  <advance width="603"/>
  <unicode hex="0272"/>
  <outline>
    <contour>
      <point x="49" y="-211" type="line"/>
      <point x="129" y="-167"/>
      <point x="185" y="-98"/>
      <point x="197" y="0" type="curve"/>
      <point x="202" y="38" type="line"/>
      <point x="62" y="38" type="line"/>
      <point x="58" y="8" type="line"/>
      <point x="50" y="-53"/>
      <point x="23" y="-95"/>
      <point x="-20" y="-124" type="curve"/>
    </contour>
    <contour>
      <point x="234" y="437" type="line"/>
      <point x="107" y="437" type="line"/>
      <point x="54" y="0" type="line"/>
      <point x="194" y="0" type="line"/>
      <point x="216" y="178" type="line"/>
      <point x="227" y="271"/>
      <point x="276" y="339"/>
      <point x="341" y="339" type="curve"/>
      <point x="386" y="339"/>
      <point x="400" y="314"/>
      <point x="398" y="275" type="curve"/>
      <point x="364" y="0" type="line"/>
      <point x="504" y="0" type="line"/>
      <point x="544" y="327" type="line"/>
      <point x="551" y="404"/>
      <point x="496" y="458"/>
      <point x="414" y="458" type="curve"/>
      <point x="333" y="458"/>
      <point x="273" y="421"/>
      <point x="235" y="366" type="curve"/>
      <point x="236" y="359" type="line"/>
    </contour>
  </outline>
</glyph>
<glyph name="circumflex" format="2">
  <advance width="475"/>
  <unicode hex="02C6"/>
  <outline>
    <contour>
      <point x="332" y="489" type="line"/>
      <point x="458" y="489" type="line"/>
      <point x="291" y="673" type="line"/>
      <point x="290" y="673" type="line"/>
      <point x="83" y="489" type="line"/>
      <point x="209" y="489" type="line"/>
      <point x="298" y="573" type="line"/>
      <point x="263" y="563" type="line"/>
    </contour>
  </outline>
</glyph>
<glyph name="dotaccent" format="2">
  <advance width="269"/>
  <unicode hex="02D9"/>
  <outline>
    <contour>
      <point x="113" y="607" type="curve" smooth="yes"/>
      <point x="113" y="559"/>
      <point x="155" y="542"/>
      <point x="188" y="542" type="curve" smooth="yes"/>
      <point x="236" y="542"/>
      <point x="268" y="576"/>
      <point x="268" y="618" type="curve" smooth="yes"/>
      <point x="268" y="666"/>
      <point x="226" y="683"/>
      <point x="193" y="683" type="curve" smooth="yes"/>
      <point x="145" y="683"/>
      <point x="113" y="649"/>
    </contour>
  </outline>
</glyph>
<glyph name="ogonek" format="2">
  <advance width="401"/>
  <unicode hex="02DB"/>
  <outline>
    <contour>
      <point x="181" y="-232" type="curve"/>
      <point x="227" y="-235"/>
      <point x="289" y="-208"/>
      <point x="325" y="-165" type="curve"/>
      <point x="284" y="-91" type="line"/>
      <point x="258" y="-122"/>
      <point x="233" y="-137"/>
      <point x="206" y="-135" type="curve"/>
      <point x="183" y="-134"/>
      <point x="163" y="-124"/>
      <point x="167" y="-90" type="curve" smooth="yes"/>
      <point x="172" y="-52"/>
      <point x="227" y="-31"/>
      <point x="306" y="-6" type="curve"/>
      <point x="150" y="13" type="line"/>
      <point x="71" y="-12"/>
      <point x="51" y="-75"/>
      <point x="51" y="-111" type="curve" smooth="yes"/>
      <point x="51" y="-180"/>
      <point x="106" y="-227"/>
    </contour>
  </outline>
</glyph>
<glyph name="hungarumlaut" format="2">
  <advance width="551"/>
  <unicode hex="02DD"/>
  <outline>
    <contour>
      <point x="346" y="624" type="curve"/>
      <point x="221" y="624" type="line"/>
      <point x="184" y="579"/>
      <point x="148" y="533"/>
      <point x="112" y="489" type="curve"/>
      <point x="197" y="489" type="line"/>
      <point x="246" y="533"/>
      <point x="297" y="579"/>
    </contour>
    <contour>
      <point x="568" y="624" type="curve"/>
      <point x="443" y="624" type="line"/>
      <point x="406" y="579"/>
      <point x="370" y="533"/>
      <point x="334" y="489" type="curve"/>
      <point x="419" y="489" type="line"/>
      <point x="468" y="533"/>
      <point x="519" y="579"/>
    </contour>
  </outline>
</glyph>
<glyph name="tildecomb" format="2">
  <unicode hex="0303"/>
  <anchor x="304" y="437" name="_top"/>
  <anchor x="343" y="636" name="top"/>
  <outline>
    <contour>
      <point x="385" y="455" type="curve"/>
      <point x="457" y="450"/>
      <point x="523" y="526"/>
      <point x="518" y="631" type="curve"/>
      <point x="433" y="637" type="line"/>
      <point x="432" y="598"/>
      <point x="424" y="553"/>
      <point x="393" y="555" type="curve"/>
      <point x="374" y="556"/>
      <point x="358" y="574"/>
      <point x="338" y="594" type="curve"/>
      <point x="313" y="620"/>
      <point x="285" y="649"/>
      <point x="245" y="651" type="curve"/>
      <point x="151" y="657"/>
      <point x="93" y="569"/>
      <point x="92" y="475" type="curve"/>
      <point x="177" y="469" type="line"/>
      <point x="177" y="506"/>
      <point x="190" y="548"/>
      <point x="223" y="546" type="curve"/>
      <point x="241" y="545"/>
      <point x="256" y="531"/>
      <point x="272" y="515" type="curve"/>
      <point x="299" y="489"/>
      <point x="329" y="458"/>
    </contour>
  </outline>
</glyph>
<glyph name="quotedblbase" format="2">
  <advance width="410"/>
  <unicode hex="201E"/>
  <outline>
    <contour>
      <point x="74" y="-58" type="curve"/>
      <point x="74" y="-58" type="line"/>
      <point x="115" y="-19"/>
      <point x="140" y="37"/>
      <point x="136" y="94" type="curve"/>
      <point x="112" y="92"/>
      <point x="87" y="89"/>
      <point x="63" y="87" type="curve"/>
      <point x="67" y="40"/>
      <point x="47" y="-2"/>
      <point x="15" y="-30" type="curve"/>
      <point x="35" y="-39"/>
      <point x="54" y="-48"/>
    </contour>
    <contour>
      <point x="180" y="-58" type="curve"/>
      <point x="180" y="-58" type="line"/>
      <point x="221" y="-19"/>
      <point x="246" y="37"/>
      <point x="242" y="94" type="curve"/>
      <point x="218" y="92"/>
      <point x="193" y="89"/>
      <point x="169" y="87" type="curve"/>
      <point x="173" y="40"/>
      <point x="153" y="-2"/>
      <point x="121" y="-30" type="curve"/>
      <point x="141" y="-39"/>
      <point x="160" y="-48"/>
    </contour>
  </outline>
</glyph>
<glyph name="guilsinglleft" format="2">
  <advance width="399"/>
  <unicode hex="2039"/>
  <outline>
    <contour>
      <point x="149" y="244" type="line"/>
      <point x="298" y="39" type="line"/>
      <point x="315" y="181" type="line"/>
      <point x="282" y="244" type="line"/>
      <point x="331" y="306" type="line"/>
      <point x="348" y="448" type="line"/>
    </contour>
  </outline>
</glyph>
<glyph name="guilsinglright" format="2">
  <advance width="400"/>
  <unicode hex="203A"/>
  <outline>
    <contour>
      <point x="264" y="244" type="line"/>
      <point x="115" y="39" type="line"/>
      <point x="98" y="181" type="line"/>
      <point x="131" y="244" type="line"/>
      <point x="82" y="306" type="line"/>
      <point x="65" y="448" type="line"/>
    </contour>
  </outline>
</glyph>
<glyph name="foursuperior" format="2">
  <advance width="409"/>
  <unicode hex="2074"/>
  <outline>
    <contour>
      <point x="405" y="437" type="line"/>
      <point x="137" y="437" type="line"/>
      <point x="149" y="387" type="line"/>
      <point x="281" y="551" type="line"/>
      <point x="250" y="543" type="line"/>
      <point x="216" y="265" type="line"/>
      <point x="336" y="265" type="line"/>
      <point x="388" y="687" type="line"/>
      <point x="300" y="687" type="line"/>
      <point x="51" y="393" type="line"/>
      <point x="49" y="359" type="line"/>
      <point x="396" y="359" type="line"/>
    </contour>
  </outline>
</glyph>
<glyph name="lira" format="2">
  <advance width="602"/>
  <unicode hex="20A4"/>
  <outline>
    <contour>
      <point x="502" y="498" type="line"/>
      <point x="137" y="498" type="line"/>
      <point x="121" y="368" type="line"/>
      <point x="486" y="368" type="line"/>
    </contour>
    <contour>
      <point x="481" y="330" type="line"/>
      <point x="116" y="330" type="line"/>
      <point x="100" y="200" type="line"/>
      <point x="465" y="200" type="line"/>
    </contour>
    <contour>
      <point x="214" y="560" type="curve" smooth="yes"/>
      <point x="172" y="213" type="line" smooth="yes"/>
      <point x="164" y="144"/>
      <point x="149" y="140"/>
      <point x="110" y="140" type="curve" smooth="yes"/>
      <point x="65" y="140" type="line"/>
      <point x="48" y="0" type="line"/>
      <point x="468" y="0" type="line" smooth="yes"/>
      <point x="562" y="0"/>
      <point x="616" y="53"/>
      <point x="626" y="132" type="curve" smooth="yes"/>
      <point x="636" y="213" type="line"/>
      <point x="510" y="212" type="line"/>
      <point x="506" y="179" type="line" smooth="yes"/>
      <point x="503" y="152"/>
      <point x="486" y="140"/>
      <point x="457" y="140" type="curve" smooth="yes"/>
      <point x="288" y="140" type="line"/>
      <point x="288" y="140" type="line"/>
      <point x="313" y="159"/>
      <point x="322" y="256"/>
      <point x="317" y="217" type="curve" smooth="yes"/>
      <point x="315" y="193" type="line"/>
      <point x="353" y="504" type="line" smooth="yes"/>
      <point x="361" y="570"/>
      <point x="395" y="597"/>
      <point x="460" y="597" type="curve" smooth="yes"/>
      <point x="551" y="597"/>
      <point x="551" y="544"/>
      <point x="557" y="555" type="curve"/>
      <point x="671" y="627" type="line"/>
      <point x="643" y="696"/>
      <point x="573" y="737"/>
      <point x="474" y="737" type="curve" smooth="yes"/>
      <point x="332" y="737"/>
      <point x="226" y="656"/>
    </contour>
  </outline>
</glyph>
<glyph name="won" format="2">
  <advance width="1023"/>
  <unicode hex="20A9"/>
  <anchor x="525" y="0" name="bottom"/>
  <anchor x="616" y="736" name="top"/>
  <outline>
    <contour>
      <point x="87" y="473" type="line"/>
      <point x="75" y="376" type="line"/>
      <point x="988" y="376" type="line"/>
      <point x="1000" y="473" type="line"/>
    </contour>
    <component base="W" xOffset="16"/>
  </outline>
</glyph>
<glyph name="dong" format="2">
  <advance width="600"/>
  <unicode hex="20AB"/>
  <outline>
    <contour>
      <point x="374" y="746" type="line"/>
      <point x="362" y="649" type="line"/>
      <point x="643" y="649" type="line"/>
      <point x="655" y="746" type="line"/>
    </contour>
    <contour>
      <point x="54" y="97" type="line"/>
      <point x="42" y="0" type="line"/>
      <point x="508" y="0" type="line"/>
      <point x="520" y="97" type="line"/>
    </contour>
    <contour>
      <point x="260" y="150" type="curve"/>
      <point x="324" y="150"/>
      <point x="359" y="173"/>
      <point x="405" y="217" type="curve"/>
      <point x="398" y="247" type="line"/>
      <point x="388" y="162" type="line"/>
      <point x="528" y="162" type="line"/>
      <point x="604" y="789" type="line"/>
      <point x="465" y="789" type="line"/>
      <point x="433" y="524" type="line"/>
      <point x="441" y="565" type="line"/>
      <point x="411" y="601"/>
      <point x="358" y="621"/>
      <point x="304" y="621" type="curve"/>
      <point x="180" y="621"/>
      <point x="79" y="537"/>
      <point x="61" y="389" type="curve"/>
      <point x="43" y="240"/>
      <point x="136" y="150"/>
    </contour>
    <contour>
      <point x="307" y="268" type="curve"/>
      <point x="238" y="268"/>
      <point x="195" y="321"/>
      <point x="204" y="391" type="curve"/>
      <point x="212" y="461"/>
      <point x="264" y="511"/>
      <point x="318" y="511" type="curve"/>
      <point x="372" y="511"/>
      <point x="408" y="480"/>
      <point x="422" y="441" type="curve"/>
      <point x="409" y="334" type="line"/>
      <point x="381" y="292"/>
      <point x="346" y="268"/>
    </contour>
  </outline>
</glyph>
<glyph name="rupeeIndian" format="2">
  <advance width="509"/>
  <unicode hex="20B9"/>
  <outline>
    <contour>
      <point x="78" y="234" type="line"/>
      <point x="161" y="234" type="line"/>
      <point x="357" y="234"/>
      <point x="439" y="367"/>
      <point x="454" y="488" type="curve"/>
      <point x="472" y="639"/>
      <point x="376" y="696"/>
      <point x="191" y="696" type="curve"/>
      <point x="289" y="596" type="line"/>
      <point x="540" y="596" type="line"/>
      <point x="557" y="736" type="line"/>
      <point x="139" y="736" type="line"/>
      <point x="122" y="596" type="line"/>
      <point x="205" y="596" type="line"/>
      <point x="307" y="596"/>
      <point x="307" y="514"/>
      <point x="303" y="483" type="curve"/>
      <point x="298" y="441"/>
      <point x="265" y="374"/>
      <point x="177" y="374" type="curve"/>
      <point x="95" y="374" type="line"/>
    </contour>
    <contour>
      <point x="280" y="0" type="line"/>
      <point x="449" y="0" type="line"/>
      <point x="302" y="284" type="line"/>
      <point x="128" y="280" type="line"/>
    </contour>
    <contour>
      <point x="108" y="429" type="line"/>
      <point x="516" y="429" type="line"/>
      <point x="531" y="551" type="line"/>
      <point x="123" y="551" type="line"/>
    </contour>
  </outline>
</glyph>
<glyph name="liraTurkish" format="2">
  <advance width="656"/>
  <unicode hex="20BA"/>
  <outline>
    <contour>
      <point x="611" y="324" type="curve"/>
      <point x="455" y="286" type="line"/>
      <point x="455" y="272"/>
      <point x="455" y="258"/>
      <point x="453" y="242" type="curve" smooth="yes"/>
      <point x="443" y="167"/>
      <point x="375" y="141"/>
      <point x="253" y="141" type="curve"/>
      <point x="256" y="59" type="line"/>
      <point x="339" y="736" type="line"/>
      <point x="194" y="736" type="line"/>
      <point x="104" y="0" type="line"/>
      <point x="249" y="0" type="line"/>
      <point x="428" y="0"/>
      <point x="581" y="66"/>
      <point x="608" y="239" type="curve" smooth="yes"/>
      <point x="613" y="269"/>
      <point x="612" y="298"/>
    </contour>
    <contour>
      <point x="447" y="497" type="line"/>
      <point x="46" y="288" type="line"/>
      <point x="91" y="200" type="line"/>
      <point x="492" y="409" type="line"/>
    </contour>
    <contour>
      <point x="408" y="624" type="line"/>
      <point x="9" y="417" type="line"/>
      <point x="54" y="329" type="line"/>
      <point x="454" y="536" type="line"/>
    </contour>
  </outline>
</glyph>
<glyph name="numero" format="2">
  <advance width="1374"/>
  <unicode hex="2116"/>
  <anchor x="411" y="0" name="bottom_1"/>
  <anchor x="1115" y="294" name="bottom_2"/>
  <anchor x="1115" y="544" name="center"/>
  <anchor x="1246" y="304" name="ogonek"/>
  <anchor x="473" y="700" name="top_1"/>
  <anchor x="1135" y="744" name="top_2"/>
  <anchor x="1278" y="637" name="topright"/>
  <outline>
    <contour>
      <point x="885" y="233" type="line"/>
      <point x="871" y="111" type="line"/>
      <point x="1278" y="111" type="line"/>
      <point x="1292" y="233" type="line"/>
    </contour>
    <component base="N"/>
    <component base="o" xOffset="837" yOffset="294"/>
  </outline>
</glyph>
<glyph name="summation" format="2">
  <advance width="588"/>
  <unicode hex="2211"/>
  <outline>
    <contour>
      <point x="169" y="765" type="line"/>
      <point x="232" y="334" type="line"/>
      <point x="63" y="-97" type="line"/>
      <point x="504" y="-97" type="line"/>
      <point x="485" y="24" type="line"/>
      <point x="243" y="24" type="line"/>
      <point x="367" y="334" type="line"/>
      <point x="319" y="644" type="line"/>
      <point x="561" y="644" type="line"/>
      <point x="610" y="765" type="line"/>
    </contour>
  </outline>
</glyph>
<glyph name="bulletoperator" format="2">
  <advance width="242"/>
  <unicode hex="2219"/>
  <outline>
    <contour>
      <point x="124" y="236" type="curve" smooth="yes"/>
      <point x="179" y="233"/>
      <point x="230" y="275"/>
      <point x="236" y="331" type="curve" smooth="yes"/>
      <point x="243" y="387"/>
      <point x="204" y="434"/>
      <point x="148" y="438" type="curve" smooth="yes"/>
      <point x="92" y="441"/>
      <point x="41" y="399"/>
      <point x="35" y="343" type="curve" smooth="yes"/>
      <point x="28" y="287"/>
      <point x="67" y="240"/>
    </contour>
  </outline>
</glyph>
<glyph name="infinity" format="2">
  <advance width="489"/>
  <unicode hex="221E"/>
  <outline>
    <contour>
      <point x="293" y="311" type="curve"/>
      <point x="293" y="311" type="line"/>
      <point x="300" y="369"/>
      <point x="234" y="414"/>
      <point x="165" y="414" type="curve" smooth="yes"/>
      <point x="81" y="414"/>
      <point x="41" y="348"/>
      <point x="41" y="301" type="curve" smooth="yes"/>
      <point x="41" y="259"/>
      <point x="68" y="207"/>
      <point x="140" y="207" type="curve" smooth="yes"/>
      <point x="209" y="207"/>
      <point x="285" y="252"/>
    </contour>
    <contour>
      <point x="220" y="304" type="curve" smooth="yes"/>
      <point x="220" y="304" type="line" smooth="yes"/>
      <point x="220" y="249"/>
      <point x="281" y="207"/>
      <point x="346" y="207" type="curve" smooth="yes"/>
      <point x="431" y="207"/>
      <point x="471" y="273"/>
      <point x="471" y="320" type="curve" smooth="yes"/>
      <point x="471" y="363"/>
      <point x="443" y="414"/>
      <point x="372" y="414" type="curve" smooth="yes"/>
      <point x="301" y="414"/>
      <point x="220" y="366"/>
    </contour>
    <contour>
      <point x="220" y="309" type="curve"/>
      <point x="220" y="309" type="line"/>
      <point x="218" y="290"/>
      <point x="183" y="278"/>
      <point x="151" y="278" type="curve" smooth="yes"/>
      <point x="121" y="278"/>
      <point x="112" y="289"/>
      <point x="112" y="305" type="curve" smooth="yes"/>
      <point x="112" y="331"/>
      <point x="126" y="342"/>
      <point x="159" y="342" type="curve" smooth="yes"/>
      <point x="193" y="342"/>
      <point x="223" y="329"/>
    </contour>
    <contour>
      <point x="292" y="309" type="curve"/>
      <point x="292" y="309" type="line"/>
      <point x="295" y="329"/>
      <point x="329" y="342"/>
      <point x="363" y="342" type="curve" smooth="yes"/>
      <point x="388" y="342"/>
      <point x="400" y="334"/>
      <point x="400" y="315" type="curve" smooth="yes"/>
      <point x="400" y="296"/>
      <point x="395" y="278"/>
      <point x="355" y="278" type="curve" smooth="yes"/>
      <point x="325" y="278"/>
      <point x="290" y="289"/>
    </contour>
  </outline>
</glyph>
<glyph name="lessequal" format="2">
  <advance width="555"/>
  <unicode hex="2264"/>
  <outline>
    <contour>
      <point x="464" y="216" type="curve"/>
      <point x="486" y="388" type="line"/>
      <point x="486" y="388" type="line"/>
      <point x="441" y="416"/>
      <point x="395" y="445"/>
      <point x="350" y="473" type="curve"/>
      <point x="401" y="501"/>
      <point x="455" y="530"/>
      <point x="506" y="558" type="curve"/>
      <point x="527" y="729" type="line"/>
      <point x="368" y="644"/>
      <point x="210" y="558"/>
      <point x="51" y="473" type="curve"/>
      <point x="189" y="387"/>
      <point x="326" y="302"/>
    </contour>
    <contour>
      <point x="52" y="163" type="line"/>
      <point x="37" y="41" type="line"/>
      <point x="404" y="41" type="line"/>
      <point x="419" y="163" type="line"/>
    </contour>
  </outline>
</glyph>
<glyph name="lozenge" format="2">
  <advance width="472"/>
  <unicode hex="25CA"/>
  <outline>
    <contour>
      <point x="328" y="743" type="line"/>
      <point x="103" y="355" type="line"/>
      <point x="232" y="-33" type="line"/>
      <point x="458" y="355" type="line"/>
    </contour>
    <contour>
      <point x="306" y="564" type="line"/>
      <point x="373" y="355" type="line"/>
      <point x="254" y="146" type="line"/>
      <point x="188" y="355" type="line"/>
    </contour>
  </outline>
</glyph>
<glyph name="fi" format="2">
  <advance width="624"/>
  <unicode hex="FB01"/>
  <anchor x="446" y="0" name="bottom"/>
  <anchor x="475" y="10" name="ogonek"/>
  <anchor x="530" y="673" name="top"/>
  <outline>
    <contour>
      <point x="84" y="0" type="line"/>
      <point x="224" y="0" type="line"/>
      <point x="262" y="315" type="line"/>
      <point x="374" y="315" type="line"/>
      <point x="390" y="439" type="line"/>
      <point x="278" y="439" type="line"/>
      <point x="296" y="587" type="line"/>
      <point x="303" y="645"/>
      <point x="334" y="671"/>
      <point x="374" y="671" type="curve"/>
      <point x="390" y="671"/>
      <point x="408" y="666"/>
      <point x="420" y="649" type="curve"/>
      <point x="492" y="750" type="line"/>
      <point x="460" y="775"/>
      <point x="410" y="786"/>
      <point x="373" y="786" type="curve"/>
      <point x="248" y="786"/>
      <point x="170" y="705"/>
      <point x="156" y="591" type="curve"/>
      <point x="138" y="439" type="line"/>
      <point x="64" y="439" type="line"/>
      <point x="48" y="315" type="line"/>
      <point x="122" y="315" type="line"/>
    </contour>
    <component base="i" xOffset="335"/>
  </outline>
</glyph>
<glyph name="brevecomb_tildecomb" format="2">
  <anchor x="301" y="437" name="_top"/>
  <anchor x="354" y="864" name="top"/>
  <outline>
    <contour>
      <point x="401.164" y="702.012" type="curve"/>
      <point x="460.6648" y="697.88"/>
      <point x="515.2072000000001" y="760.6864"/>
      <point x="511.0752" y="847.4584" type="curve"/>
      <point x="440.8312" y="852.4168" type="line"/>
      <point x="440.0048" y="820.1872000000001"/>
      <point x="433.3936" y="782.9992"/>
      <point x="407.7752" y="784.652" type="curve"/>
      <point x="392.0736" y="785.4784"/>
      <point x="378.8512" y="800.3536"/>
      <point x="362.3232" y="816.8815999999999" type="curve"/>
      <point x="341.6632" y="838.368"/>
      <point x="318.524" y="862.3336"/>
      <point x="285.468" y="863.9864" type="curve"/>
      <point x="207.78640000000001" y="868.9448"/>
      <point x="159.8552" y="796.2216000000001"/>
      <point x="159.0288" y="718.54" type="curve"/>
      <point x="229.27280000000002" y="713.5816" type="line"/>
      <point x="229.27280000000002" y="744.1584"/>
      <point x="240.016" y="778.8672"/>
      <point x="267.2872" y="777.2144000000001" type="curve"/>
      <point x="282.16240000000005" y="776.388"/>
      <point x="294.5584" y="764.8184"/>
      <point x="307.7808" y="751.596" type="curve"/>
      <point x="330.09360000000004" y="730.1096"/>
      <point x="354.8856" y="704.4911999999999"/>
    </contour>
    <component base="brevecomb"/>
  </outline>
</glyph>
